#!OML:ASF I:\Actors\actors\Patient Classification 2\Patient 1\Session 1\actor1.ASF
:FULLY-SPECIFIED
:DEGREES
868
root -1.22365 18.5118 6.35312 -3.3772 -3.20746 -3.97967
lowerback 9.59629 -0.0606483 3.02781
upperback 0.991575 0.334964 2.08667
thorax -4.34705 0.128164 0.422179
lowerneck -12.8021 -0.703164 0.508325
upperneck 14.2349 -1.97056 5.48772
head 6.4991 -0.466596 1.4908
rclavicle -6.85807e-015 9.93923e-016
rhumerus -41.9633 -6.92964 -79.0007
rradius 48.3335
rwrist 1.88812
rhand -10.2235 -32.0183
rfingers 7.12502
rthumb 15.7685 -61.396
lclavicle -6.85807e-015 9.93923e-016
lhumerus -35.9055 4.7237 86.3352
lradius 43.2807
lwrist -0.861823
lhand -4.24136 -21.5722
lfingers 7.12502
lthumb 21.5222 7.25206
rfemur 14.4795 5.14871 20.2854
rtibia 2.54444e-014
rfoot -19.1359 -11.6166
rtoes -10.8521
lfemur -0.233284 -2.5234 -9.11053
ltibia 25.7444
lfoot -22.935 10.3799
ltoes -58.0111
869
root -1.22356 18.5173 6.33044 -3.26015 -2.95332 -4.03386
lowerback 9.56279 -0.119963 3.00489
upperback 0.926574 0.255299 2.1007
thorax -4.39754 0.0884842 0.460383
lowerneck -12.7691 -0.736649 0.45764
upperneck 14.2691 -2.00663 5.4839
head 6.50553 -0.486823 1.49473
rclavicle 5.96354e-015 -2.127e-014
rhumerus -41.5988 -6.42747 -79.5855
rradius 49.5142
rwrist 0.427526
rhand -10.7167 -31.6582
rfingers 7.12502
rthumb 15.2934 -61.0728
lclavicle 5.96354e-015 -2.127e-014
lhumerus -35.4167 3.48127 87.0117
lradius 44.6121
lwrist 0.81168
lhand -4.88997 -21.9804
lfingers 7.12502
lthumb 20.8991 6.91383
rfemur 14.3023 4.89123 20.3208
rtibia 3.33958e-014
rfoot -19.0728 -11.6787
rtoes -10.8256
lfemur -0.498884 -2.53896 -9.00058
ltibia 25.7159
lfoot -22.7151 10.1974
ltoes -58.0537
870
root -1.21851 18.521 6.3197 -3.24982 -2.94338 -3.98672
lowerback 9.44858 -0.114994 2.94928
upperback 0.947116 0.24864 2.07091
thorax -4.31241 0.086906 0.461099
lowerneck -12.7122 -0.767369 0.442421
upperneck 14.2326 -2.03587 5.44592
head 6.48441 -0.506648 1.48213
rclavicle 3.80176e-015 8.74653e-015
rhumerus -41.2918 -5.71567 -80.2865
rradius 50.6948
rwrist -0.368988
rhand -11.3845 -31.8074
rfingers 7.12502
rthumb 14.6501 -61.2698
lclavicle 3.80176e-015 8.74653e-015
lhumerus -35.0245 2.21391 87.6546
lradius 45.9573
lwrist 2.35433
lhand -5.64431 -22.3045
lfingers 7.12502
lthumb 20.1742 6.66793
rfemur 14.2457 4.88861 20.2479
rtibia -3.97569e-014
rfoot -19.0626 -11.7193
rtoes -10.8976
lfemur -0.536662 -2.54705 -9.06971
ltibia 25.6847
lfoot -22.6713 10.209
ltoes -58.045
871
root -1.21177 18.524 6.31071 -3.26577 -3.08503 -3.95792
lowerback 9.37397 -0.0814953 2.90896
upperback 0.952278 0.284778 2.05929
thorax -4.26496 0.105862 0.466805
lowerneck -12.5699 -0.7907 0.405433
upperneck 14.1615 -2.05476 5.45361
head 6.43792 -0.520997 1.48862
rclavicle 4.39811e-015 -2.94201e-014
rhumerus -41.123 -4.95893 -80.9375
rradius 51.8558
rwrist -0.829791
rhand -11.7741 -31.8313
rfingers 7.12502
rthumb 14.2747 -61.3207
lclavicle 4.39811e-015 -2.94201e-014
lhumerus -34.7556 1.1188 88.2416
lradius 47.202
lwrist 3.63707
lhand -6.36343 -22.6623
lfingers 7.12502
lthumb 19.483 6.38154
rfemur 14.2068 5.03687 20.2005
rtibia -1.27222e-014
rfoot -19.0567 -11.7454
rtoes -10.9942
lfemur -0.492789 -2.49212 -9.13564
ltibia 25.64
lfoot -22.6953 10.3272
ltoes -58.0187
872
root -1.20437 18.5276 6.30136 -3.2381 -3.28926 -3.96756
lowerback 9.31961 -0.0405148 2.90134
upperback 0.910829 0.337943 2.07184
thorax -4.27727 0.132022 0.477395
lowerneck -12.4289 -0.792436 0.233065
upperneck 14.1676 -2.0468 5.6082
head 6.41836 -0.515909 1.56735
rclavicle -7.7526e-015 2.38542e-014
rhumerus -41.038 -4.21474 -81.508
rradius 52.8363
rwrist -1.05965
rhand -11.956 -31.5918
rfingers 7.12502
rthumb 14.0994 -61.0935
lclavicle -7.7526e-015 2.38542e-014
lhumerus -34.5275 0.208037 88.7886
lradius 48.2718
lwrist 4.60434
lhand -6.88724 -23.1773
lfingers 7.12502
lthumb 18.9793 5.9167
rfemur 14.1104 5.24557 20.1909
rtibia -5.56597e-014
rfoot -19.0404 -11.7575
rtoes -10.8771
lfemur -0.459885 -2.48992 -9.1786
ltibia 25.5671
lfoot -22.7887 10.5296
ltoes -57.9448
873
root -1.19771 18.5309 6.29457 -3.21236 -3.46043 -3.99185
lowerback 9.27871 0.003293 2.94179
upperback 0.864363 0.399275 2.05427
thorax -4.3017 0.160987 0.428689
lowerneck -12.3579 -0.798953 0.151691
upperneck 14.2227 -2.05726 5.702
head 6.42571 -0.517633 1.6102
rclavicle -1.44243e-014 2.56432e-014
rhumerus -40.9912 -3.50922 -82.1087
rradius 53.6546
rwrist -1.12135
rhand -12.0795 -31.5366
rfingers 7.12502
rthumb 13.9804 -61.0465
lclavicle -1.44243e-014 2.56432e-014
lhumerus -34.3582 -0.70426 89.2493
lradius 49.2607
lwrist 5.30816
lhand -7.09412 -23.5971
lfingers 7.12502
lthumb 18.7803 5.51627
rfemur 14.0311 5.41915 20.2011
rtibia 4.29375e-014
rfoot -19.0209 -11.7624
rtoes -10.7242
lfemur -0.408674 -2.59904 -9.22152
ltibia 25.4811
lfoot -22.9192 10.7449
ltoes -57.858
874
root -1.19143 18.5336 6.28838 -3.19673 -3.54629 -3.97213
lowerback 9.20041 0.0505926 2.95519
upperback 0.850904 0.45845 2.01105
thorax -4.27064 0.189911 0.368752
lowerneck -12.4255 -0.849498 0.145796
upperneck 14.3716 -2.13828 5.72316
head 6.48777 -0.550914 1.61134
rclavicle 7.45443e-015 -1.21259e-014
rhumerus -40.9364 -2.8961 -82.6924
rradius 54.3384
rwrist -1.07447
rhand -12.0586 -31.4135
rfingers 7.12502
rthumb 14.0006 -60.922
lclavicle 7.45443e-015 -1.21259e-014
lhumerus -34.2164 -1.66477 89.6927
lradius 50.0795
lwrist 6.08945
lhand -7.18985 -24.3529
lfingers 7.12502
lthumb 18.6882 4.76937
rfemur 13.9787 5.51035 20.1612
rtibia 4.13472e-014
rfoot -18.9689 -11.7937
rtoes -11.0336
lfemur -0.370886 -2.67207 -9.29442
ltibia 25.3914
lfoot -22.9631 10.8722
ltoes -57.7927
875
root -1.18505 18.5362 6.28327 -3.16282 -3.59263 -3.91802
lowerback 9.00541 0.0892633 2.91559
upperback 0.870779 0.494782 1.97669
thorax -4.14032 0.209781 0.350943
lowerneck -12.5122 -0.905616 0.0522504
upperneck 14.5609 -2.22119 5.79522
head 6.56757 -0.584429 1.64326
rclavicle -5.8393e-016 2.42517e-014
rhumerus -40.8578 -2.28763 -83.235
rradius 54.8658
rwrist -0.936553
rhand -11.8612 -31.0235
rfingers 7.12502
rthumb 14.1908 -60.5188
lclavicle -5.8393e-016 2.42517e-014
lhumerus -34.063 -2.52407 90.1641
lradius 50.6615
lwrist 7.09505
lhand -7.31049 -25.4472
lfingers 7.12502
lthumb 18.5722 3.6862
rfemur 13.9147 5.56527 20.0759
rtibia 0
rfoot -18.9406 -11.8287
rtoes -11.4153
lfemur -0.369368 -2.69952 -9.38977
ltibia 25.3045
lfoot -22.9621 10.9452
ltoes -57.7288
876
root -1.17942 18.539 6.27805 -3.12018 -3.62634 -3.88728
lowerback 8.80998 0.105325 2.87976
upperback 0.872308 0.502956 1.9571
thorax -4.02944 0.215443 0.350089
lowerneck -12.4696 -0.942038 -0.0333407
upperneck 14.6607 -2.26103 5.80631
head 6.59407 -0.606014 1.65785
rclavicle -6.39217e-015 -2.44505e-014
rhumerus -40.8412 -1.60869 -83.777
rradius 55.2334
rwrist -0.685495
rhand -11.5775 -30.6329
rfingers 7.12502
rthumb 14.4641 -60.1088
lclavicle -6.39217e-015 -2.44505e-014
lhumerus -34.0068 -3.20897 90.6029
lradius 51.2618
lwrist 7.84194
lhand -7.27638 -25.8993
lfingers 7.12502
lthumb 18.605 3.23102
rfemur 13.8457 5.60533 20.0172
rtibia -4.77083e-015
rfoot -18.9714 -11.8237
rtoes -11.4387
lfemur -0.389287 -2.70748 -9.45021
ltibia 25.2299
lfoot -22.9338 11.008
ltoes -57.7325
877
root -1.17347 18.5414 6.27096 -3.07792 -3.64644 -3.9048
lowerback 8.69329 0.105963 2.90591
upperback 0.850723 0.501737 1.95403
thorax -3.98644 0.214713 0.332663
lowerneck -12.436 -0.973083 -0.0653604
upperneck 14.7571 -2.28918 5.73059
head 6.61913 -0.626238 1.63673
rclavicle -4.12478e-015 -1.47101e-014
rhumerus -40.8969 -0.954714 -84.2876
rradius 55.4639
rwrist -0.388399
rhand -11.2833 -30.3496
rfingers 7.12502
rthumb 14.7475 -59.8049
lclavicle -4.12478e-015 -1.47101e-014
lhumerus -34.0441 -3.81261 91.0321
lradius 51.8807
lwrist 8.28599
lhand -7.22875 -25.8441
lfingers 7.12502
lthumb 18.6508 3.28174
rfemur 13.7739 5.6286 20.0088
rtibia -1.43125e-014
rfoot -18.998 -11.8031
rtoes -11.3303
lfemur -0.419679 -2.69807 -9.44999
ltibia 25.174
lfoot -22.9056 11.0199
ltoes -57.7048
878
root -1.16804 18.5435 6.26425 -3.05113 -3.64964 -3.97592
lowerback 8.62143 0.0996352 2.99128
upperback 0.832926 0.4989 1.95505
thorax -3.96414 0.212046 0.286356
lowerneck -12.4632 -0.990125 -0.0711367
upperneck 14.8799 -2.31149 5.68829
head 6.66333 -0.637807 1.62266
rclavicle -1.41075e-014 -2.5842e-014
rhumerus -40.9697 -0.447589 -84.772
rradius 55.5401
rwrist -0.0245194
rhand -10.9274 -29.9528
rfingers 7.12502
rthumb 15.0905 -59.3827
lclavicle -1.41075e-014 -2.5842e-014
lhumerus -34.114 -4.37148 91.4307
lradius 52.351
lwrist 8.66196
lhand -7.17692 -25.8168
lfingers 7.12502
lthumb 18.7007 3.3043
rfemur 13.7243 5.63039 20.0643
rtibia 3.18055e-015
rfoot -19.0165 -11.7797
rtoes -11.1683
lfemur -0.435917 -2.74945 -9.3911
ltibia 25.1364
lfoot -22.9472 10.984
ltoes -57.5705
